<?xml version="1.0" encoding="utf-8"?>
<!-- Generator: Adobe Illustrator 19.1.0, SVG Export Plug-In . SVG Version: 6.00 Build 0)  -->
<svg version="1.1" id="Layer_1" xmlns="http://www.w3.org/2000/svg" xmlns:xlink="http://www.w3.org/1999/xlink" x="0px" y="0px"
	 viewBox="0 0 237 75.8" style="enable-background:new 0 0 237 75.8;" xml:space="preserve">
<style type="text/css">
	.st0{fill:#0076C0;}
	.st1{fill:#5F6062;}
	.st2{fill:#FFFFFF;}
</style>
<g>
	<path class="st2" d="M19.6,38.4c0,0.7-0.5,1.2-1.2,1.2c-0.7,0-1.2-0.5-1.2-1.2v-7c0-0.6,0.5-1.2,1.2-1.2c0.6,0,1.2,0.5,1.2,1.2
		V38.4z"/>
	<path class="st2" d="M18.4,45.5c1.8,0,3.6-0.7,5-2.1c2.8-2.7,2.8-7.2,0-10c-0.5-0.5-1.2-0.5-1.7,0c-0.5,0.5-0.5,1.2,0,1.7
		c1.8,1.8,1.8,4.8,0,6.6c-0.9,0.9-2.1,1.4-3.3,1.4c-1.2,0-2.4-0.5-3.3-1.4c-1.8-1.8-1.8-4.8,0-6.6c0.5-0.5,0.5-1.2,0-1.7
		c-0.5-0.5-1.2-0.5-1.7,0c-2.8,2.8-2.8,7.2,0,10C14.8,44.8,16.6,45.5,18.4,45.5"/>
	<path class="st2" d="M39.2,31.7c-0.7,0-1.2,0.5-1.2,1.2v8l-7.4-8.7c-0.2-0.3-0.5-0.4-0.9-0.4c-0.6,0-1.2,0.5-1.2,1.2V44
		c0,0.7,0.5,1.2,1.2,1.2c0.7,0,1.2-0.5,1.2-1.2v-7.9l7.4,8.7c0.2,0.3,0.5,0.4,0.9,0.4c0.6,0,1.2-0.5,1.2-1.2V32.9
		C40.4,32.2,39.9,31.7,39.2,31.7"/>
</g>
<path class="st2" d="M214.4,43h1.8V40l1.6-1.6l3.5,4.6h2.2l-4.4-5.8l4.2-4.4H221l-4.8,5.1v-5.1h-1.8V43z M206.6,37.8
	c1.3,0,2.1-0.7,2.1-1.7v0c0-1.1-0.8-1.7-2.1-1.7H204v3.4H206.6z M202.2,32.8h4.5c1.3,0,2.3,0.4,2.9,1c0.5,0.6,0.8,1.3,0.8,2.2v0
	c0,1.7-1,2.7-2.4,3.1l2.7,3.8h-2.1l-2.5-3.5h0H204V43h-1.8V32.8z M197.1,37.9L197.1,37.9c0-2-1.4-3.6-3.5-3.6c-2,0-3.4,1.6-3.4,3.6
	v0c0,2,1.4,3.6,3.5,3.6S197.1,39.9,197.1,37.9 M188.3,37.9L188.3,37.9c0-2.9,2.2-5.3,5.3-5.3c3.1,0,5.3,2.4,5.3,5.2v0
	c0,2.9-2.2,5.3-5.3,5.3C190.5,43.1,188.3,40.8,188.3,37.9 M174.8,43h1.5l2.5-7.3l2.5,7.3h1.5l3.5-10.2h-1.9l-2.4,7.5l-2.5-7.6h-1.5
	l-2.5,7.6l-2.4-7.5h-1.9L174.8,43z M163.9,43h1.8v-8.5h3.2v-1.7h-8.2v1.7h3.2V43z M150.3,43h7.6v-1.6h-5.8v-2.7h5.1V37h-5.1v-2.6
	h5.7v-1.6h-7.5V43z M137.7,43h1.8v-7.2l5.6,7.2h1.5V32.8h-1.8v7l-5.4-7h-1.7V43z M125.3,37.8c1.3,0,2.1-0.7,2.1-1.7v0
	c0-1.1-0.8-1.7-2.1-1.7h-2.6v3.4H125.3z M120.9,32.8h4.5c1.3,0,2.3,0.4,2.9,1c0.5,0.6,0.8,1.3,0.8,2.2v0c0,1.7-1,2.7-2.4,3.1
	l2.7,3.8h-2.1l-2.5-3.5h0h-2.2V43h-1.8V32.8z M114.3,38.9l-1.8-4.1l-1.7,4.1H114.3z M111.8,32.7h1.7l4.5,10.2H116l-1-2.5h-4.8
	l-1,2.5h-1.8L111.8,32.7z M101.2,43h1.8v-4.1l4-6.1h-2l-2.9,4.5l-2.8-4.5h-2.1l4,6.2V43z M90.2,41.3c2.1,0,3.5-1.4,3.5-3.4v0
	c0-2-1.4-3.5-3.5-3.5h-2v6.9H90.2z M86.4,32.8h3.8c3.2,0,5.4,2.2,5.4,5.1v0c0,2.9-2.2,5.1-5.4,5.1h-3.8V32.8z M80.5,43h1.8V32.8
	h-1.8V43z M66.4,43h1.8v-7.3l3.2,4.8h0.1l3.2-4.8V43h1.8V32.8h-1.9l-3.1,4.8l-3.1-4.8h-1.9V43z M61,37.9L61,37.9
	c0-2-1.4-3.6-3.5-3.6c-2,0-3.4,1.6-3.4,3.6v0c0,2,1.4,3.6,3.5,3.6C59.6,41.5,61,39.9,61,37.9 M52.3,37.9L52.3,37.9
	c0-2.9,2.2-5.3,5.3-5.3c3.1,0,5.3,2.4,5.3,5.2v0c0,2.9-2.2,5.3-5.3,5.3C54.4,43.1,52.3,40.8,52.3,37.9"/>
</svg>
