<?xml version="1.0" encoding="UTF-8" standalone="no"?><!DOCTYPE svg PUBLIC "-//W3C//DTD SVG 1.1//EN" "http://www.w3.org/Graphics/SVG/1.1/DTD/svg11.dtd"><svg width="100%" height="100%" viewBox="0 0 670 670" version="1.1" xmlns="http://www.w3.org/2000/svg" xmlns:xlink="http://www.w3.org/1999/xlink" xml:space="preserve" xmlns:serif="http://www.serif.com/" style="fill-rule:evenodd;clip-rule:evenodd;stroke-linejoin:round;stroke-miterlimit:1.41421;"><g><g><rect x="367.414" y="324.18" width="21.594" height="140.474" style="fill:#fff;fill-opacity:0.501961;"/><rect x="280.947" y="324.18" width="21.594" height="140.474" style="fill:#fff;fill-opacity:0.501961;"/><path d="M421.466,313.406l0,64.827c0,17.882 14.532,32.414 32.414,32.414l43.233,0l0,-21.594l-43.233,0c-5.976,0 -10.82,-4.844 -10.82,-10.82l0,-64.827l-21.594,0Z" style="fill:#fff;fill-opacity:0.501961;fill-rule:nonzero;"/><path d="M248.534,378.233l0,-64.827l-21.594,0l0,64.827c0,5.976 -4.844,10.82 -10.82,10.82l-43.233,0l0,21.594l43.233,0c17.882,0 32.414,-14.532 32.414,-32.414Z" style="fill:#fff;fill-opacity:0.501961;fill-rule:nonzero;"/><rect x="367.414" y="486.293" width="21.594" height="21.594" style="fill:#fff;fill-opacity:0.501961;"/><rect x="280.947" y="486.293" width="21.594" height="21.594" style="fill:#fff;fill-opacity:0.501961;"/><rect x="518.707" y="389.053" width="21.594" height="21.594" style="fill:#fff;fill-opacity:0.501961;"/><path d="M195.749,184.476c-0.815,3.305 -1.223,6.655 -1.223,10.05c0,15.709 8.556,29.924 21.911,37.529c-0.181,1.902 -0.271,3.758 -0.271,5.704c0,35.764 29.063,64.827 64.827,64.827c22.544,0 42.418,-11.589 54.052,-29.063c11.635,17.52 31.508,29.063 54.053,29.063c35.763,0 64.827,-29.063 64.827,-64.827c0,-1.901 -0.136,-3.802 -0.272,-5.704c13.355,-7.605 21.911,-21.82 21.911,-37.529c0,-3.35 -0.407,-6.745 -1.222,-10.05c14.124,-10.004 22.861,-26.392 22.861,-44.002c0,-17.475 -8.601,-33.772 -22.635,-43.867c0.634,-3.305 1.041,-6.7 1.041,-10.141c0,-27.524 -20.779,-50.069 -47.443,-53.373c-8.194,-19.421 -27.434,-33.093 -49.797,-33.093c-17.746,0 -33.364,8.692 -43.233,21.956c-9.869,-13.219 -25.487,-21.956 -43.233,-21.956c-22.364,0 -41.604,13.672 -49.798,33.093c-26.664,3.304 -47.443,25.804 -47.443,53.373c0,3.486 0.408,6.881 1.041,10.141c-14.033,10.095 -22.635,26.392 -22.635,43.867c-0.181,17.655 8.556,33.998 22.681,44.002Zm182.484,-162.882c17.882,0 32.414,14.532 32.414,32.413c0,17.882 -14.532,32.414 -32.414,32.414l0,21.594c29.154,0 52.785,-23.224 53.826,-52.106c12.676,4.436 21.821,16.342 21.821,30.467c0,17.881 -14.532,32.413 -32.414,32.413l0,21.594c18.289,0 34.451,-9.19 44.229,-23.178c6.157,6.021 9.824,14.35 9.824,23.178c0,12.585 -7.47,24.129 -19.014,29.426l-10.321,4.708l5.206,10.095c1.675,3.214 2.535,6.519 2.535,9.824c0,5.84 -2.535,11.136 -6.519,15.12c-10.503,-21.684 -32.685,-36.714 -58.353,-36.714l0,21.594c23.857,0 43.233,19.375 43.233,43.233c0,23.857 -19.376,43.233 -43.233,43.233c-23.858,0 -43.233,-19.376 -43.233,-43.233l0,-183.707c0,-17.791 14.531,-32.368 32.413,-32.368Zm-173.883,95.747c9.778,13.943 25.94,23.178 44.229,23.178l0,-21.594c-17.882,0 -32.413,-14.532 -32.413,-32.414c0,-14.124 9.144,-26.075 21.82,-30.466c1.041,28.882 24.717,52.106 53.826,52.106l0,-21.594c-17.882,0 -32.413,-14.532 -32.413,-32.414c0,-17.882 14.531,-32.413 32.413,-32.413c17.882,0 32.414,14.531 32.414,32.413l0,183.707c0,23.857 -19.376,43.233 -43.233,43.233c-23.858,0 -43.234,-19.376 -43.234,-43.233c0,-23.857 19.376,-43.233 43.234,-43.233l0,-21.594c-25.669,0 -47.851,15.03 -58.354,36.714c-3.938,-3.984 -6.519,-9.28 -6.519,-15.12c0,-3.305 0.86,-6.564 2.535,-9.824l5.206,-10.095l-10.321,-4.708c-11.544,-5.251 -19.014,-16.795 -19.014,-29.426c0,-8.873 3.622,-17.203 9.824,-23.223Z" style="fill:#fff;fill-opacity:0.74902;fill-rule:nonzero;"/><path d="M605.173,118.88l-86.466,0l0,21.594l64.827,0l0,389.052l-237.714,0l0,-226.94l-21.64,0l0,226.94l-237.714,0l0,-389.052l64.827,0l0,-21.594l-86.466,0l0,432.24l540.346,0l0,-432.24Z" style="fill:#fff;fill-opacity:0.501961;fill-rule:nonzero;"/><path d="M626.767,216.12l0,21.594l21.594,0l0,356.594l-270.128,0l0,10.82c0,23.857 -19.376,43.233 -43.233,43.233c-23.857,0 -43.233,-19.376 -43.233,-43.233l0,-10.82l-270.173,0l0,-356.594l21.594,0l0,-21.594l-43.188,0l0,399.827l271.078,0c5.161,30.648 31.871,54.053 63.922,54.053c32.051,0 58.761,-23.405 63.922,-54.053l271.078,0l0,-399.827l-43.233,0Z" style="fill:#fff;fill-opacity:0.25098;fill-rule:nonzero;"/><rect x="129.699" y="389.053" width="21.594" height="21.594" style="fill:#fff;fill-opacity:0.501961;"/></g></g></svg>