<?xml version="1.0" encoding="utf-8"?>
<!-- Generator: Adobe Illustrator 19.1.0, SVG Export Plug-In . SVG Version: 6.00 Build 0)  -->
<svg version="1.1" id="Layer_1" xmlns="http://www.w3.org/2000/svg" xmlns:xlink="http://www.w3.org/1999/xlink" x="0px" y="0px"
	 viewBox="0 0 800 256.2" style="enable-background:new 0 0 800 256.2;" xml:space="preserve">
<style type="text/css">
	.st0{fill:#513080;}
	.st1{fill-rule:evenodd;clip-rule:evenodd;fill:#323132;}
	.st2{fill-rule:evenodd;clip-rule:evenodd;fill:#513080;}
	.st3{fill:#323132;}
	.st4{fill-rule:evenodd;clip-rule:evenodd;fill:#FFFFFF;}
	.st5{opacity:0.5;fill-rule:evenodd;clip-rule:evenodd;fill:#FFFFFF;}
	.st6{fill:#FFFFFF;}
	.st7{fill:#F6F6F6;}
</style>
<g id="ww29HX_8_">
	<g>
		<path class="st1" d="M158.3,171.7c-9.8,0-19.5,0-29.3,0c-3.2,0-5.6-1.5-7.4-4.1c-0.4-0.6-0.8-1.1-1.2-1.7
			c-1.7-2.6-1.4-5.5-0.9-8.4c0.1-0.7,0.6-1.3,0.9-1.9c1.7-3.5,3.3-7,4.9-10.5c1.5-3,3-5.9,4.5-8.8c1.1-2.2,2-4.5,3.1-6.7
			c1.4-2.9,2.9-5.8,4.3-8.7c0.4-0.7,0.6-1.5,1-2.3c1.3-2.7,2.7-5.4,3.9-8.1c0.3-0.6,0.5-1.4,0.5-2.1c0-6.8,0-13.6,0-20.3
			c0-1.5,0-3,1.1-4.2c0.4-0.4,0.9-0.8,1.5-1c1.9-0.8,4-0.9,6.1-0.9c4.9,0.1,9.8,0,14.7,0.1c1.5,0,3.2,0.3,4.6,0.9c2,0.9,2.9,2.9,3,5
			c0.1,6.6,0.1,13.3-0.1,19.9c-0.1,2.7,1,4.9,2.3,7.2c0.7,1.2,1.2,2.5,1.8,3.7c0.4,0.9,0.9,1.7,1.3,2.6c1.1,2.3,2.3,4.5,3.3,6.8
			c1.4,2.9,2.7,5.9,4.1,8.8c1.1,2.2,2.2,4.4,3.3,6.6c0.5,0.9,0.9,1.8,1.3,2.8c1.6,3.3,3.4,6.6,4.8,10c0.7,1.6,0.9,3.6,0.9,5.4
			c0.1,3.1-1.6,5.7-3.5,7.9c-1.4,1.5-3.3,2.2-5.4,2.2C177.9,171.7,168.1,171.7,158.3,171.7L158.3,171.7z M157.8,139.5
			C157.8,139.5,157.8,139.5,157.8,139.5c6.1,0,12.2,0,18.4,0c1.5,0,2-0.8,1.4-2.1c-1-2-2-3.9-2.9-5.9c-0.4-0.9-0.7-1.9-1.1-2.8
			c-1.6-3.5-3.2-7.1-4.8-10.6c-0.5-1.1-1.1-2.3-1.6-3.4c-0.5-1.3-1.2-2.7-1.2-4.1c-0.1-6.5-0.1-13.1,0-19.6c0-2.1-0.4-2.5-2.5-2.5
			c-3.7,0-7.3,0-11,0c-2,0-2.2,0.2-2.2,2.1c0,5.7,0,11.5,0,17.2c0,2,0.1,3.9-0.9,5.8c-1.2,2.3-2.1,4.8-3.2,7.3
			c-1.5,3.4-3.1,6.8-4.7,10.2c-1,2.1-2,4.3-3,6.4c-0.2,0.5-0.4,1.1-0.3,1.5c0.2,0.3,0.9,0.5,1.3,0.5
			C145.5,139.5,151.7,139.5,157.8,139.5z"/>
		<path class="st2" d="M147.4,182.9c14.6,0,29.3,0,43.9,0c1.7,0,3.3-0.1,4.9,1c2.7,1.8,4,4.1,4,7.4c-0.1,4.6-4.2,7.7-8.2,7.7
			c-29.6,0-36.8,0-66.4,0c-2.8,0-5.2-0.7-6.8-3c-2.5-3.3-2.8-6.6,0.1-10.3c1.5-1.9,3.5-2.8,6-2.8
			C139.7,182.9,132.4,182.9,147.4,182.9L147.4,182.9z"/>
		<path class="st2" d="M147.4,56.9c14.6,0,29.3,0,43.9,0c1.7,0,3.3-0.1,4.9,1c2.7,1.8,4,4.1,4,7.4c-0.1,4.6-4.2,7.7-8.2,7.7
			c-29.6,0-36.8,0-66.4,0c-2.8,0-5.2-0.7-6.8-3c-2.5-3.3-2.8-6.6,0.1-10.3c1.5-1.9,3.5-2.8,6-2.8C139.7,56.9,132.4,56.9,147.4,56.9
			L147.4,56.9z"/>
	</g>
</g>
<g>
	<path class="st3" d="M315.3,158.2c-2.9,3.4-7.1,6.4-12.5,9c-5.5,2.6-12.4,3.9-20.6,3.9c-10.5,0-19-3.2-25.6-9.7
		c-6.6-6.5-9.8-14.8-9.8-25.1v-17.7c0-10.2,3.2-18.6,9.6-25.1c6.4-6.5,14.6-9.7,24.7-9.7c10.9,0,19.1,2.5,24.6,7.6
		c5.4,5.1,8.5,12,9.3,20.7l-0.1,0.3h-18.5c-0.7-4.5-2.1-7.8-4.3-10.1c-2.2-2.3-5.6-3.4-10.2-3.4s-8.3,1.8-11.1,5.5
		c-2.8,3.6-4.2,8.3-4.2,14.1v17.8c0,5.9,1.4,10.7,4.1,14.3c2.8,3.6,6.6,5.4,11.6,5.4c3.6,0,6.5-0.3,8.5-0.9c2.1-0.6,3.7-1.4,4.9-2.3
		v-13.4h-13.4v-13.1h33.1V158.2z"/>
	<path class="st3" d="M397.5,135.1c0,10.5-3.3,19.1-9.9,25.9c-6.6,6.8-15.3,10.2-26,10.2c-10.8,0-19.5-3.4-26.2-10.2
		c-6.7-6.8-10-15.4-10-25.9v-15.3c0-10.4,3.3-19,10-25.8c6.7-6.8,15.4-10.2,26.1-10.2c10.7,0,19.3,3.4,26,10.2
		c6.7,6.8,10,15.4,10,25.8V135.1z M377.8,119.7c0-6.1-1.4-11-4.3-14.9c-2.9-3.9-6.9-5.8-12.1-5.8c-5.3,0-9.4,1.9-12.2,5.8
		c-2.8,3.9-4.2,8.9-4.2,15v15.4c0,6.1,1.4,11.2,4.3,15c2.9,3.9,6.9,5.8,12.3,5.8c5.2,0,9.2-1.9,12-5.8c2.8-3.9,4.3-8.9,4.3-15V119.7
		z"/>
	<path class="st3" d="M438.1,146.9l0.6,3.1h0.3l0.6-2.9L456.5,85h20.6l-27.5,84.9h-21.3L400.9,85h20.6L438.1,146.9z"/>
	<path class="st3" d="M495.2,164h42v5.9h-49V85h7V164z"/>
	<path class="st3" d="M597.9,146.2H559l-8.7,23.7H543L575.2,85h6.6l32,84.9h-7.2L597.9,146.2z M561.3,140h34.3l-16.9-46h-0.3
		L561.3,140z"/>
	<path class="st3" d="M626.8,169.9V85h24.8c8.8,0,15.7,1.9,20.6,5.6c4.9,3.7,7.4,9.3,7.4,16.8c0,4.4-1.2,8.1-3.7,11.4
		c-2.5,3.2-5.8,5.5-10.1,6.7c5.2,0.9,9.4,3.4,12.6,7.3c3.2,3.9,4.8,8.5,4.8,13.6c0,7.6-2.5,13.4-7.4,17.5
		c-4.9,4.1-11.5,6.1-19.7,6.1H626.8z M633.8,123.1h19.5c6.1,0,10.9-1.4,14.3-4.1c3.4-2.7,5-6.7,5-11.9c0-5.4-1.8-9.4-5.4-12.1
		c-3.6-2.7-8.8-4.1-15.6-4.1h-17.8V123.1z M633.8,129V164h22.4c6.3,0,11.2-1.5,14.8-4.6c3.6-3.1,5.4-7.4,5.4-12.9
		c0-5.1-1.6-9.2-4.9-12.5c-3.2-3.3-8-4.9-14.1-4.9H633.8z"/>
</g>
</svg>
